HIERARCHY
ROOT Hips
{
  OFFSET 267.745 86.9975 -272.335
  CHANNELS 6 Xposition Yposition Zposition Zrotation Xrotation Yrotation
  JOINT LeftUpLeg
  {
    OFFSET 8.64259 1.95398 -2.38835
    CHANNELS 3 Zrotation Xrotation Yrotation
    JOINT LeftLeg
    {
      OFFSET 43.7702 0 0
      CHANNELS 3 Zrotation Xrotation Yrotation
      JOINT LeftFoot
      {
        OFFSET 40.6238 0 0
        CHANNELS 3 Zrotation Xrotation Yrotation
        JOINT LeftToeBase
        {
          OFFSET 12.7242 0 0
          CHANNELS 3 Zrotation Xrotation Yrotation
          End Site
          {
            OFFSET 0 0 0
          }
        }
      }
    }
  }
  JOINT RightUpLeg
  {
    OFFSET -8.2249 1.95398 -2.59336
    CHANNELS 3 Zrotation Xrotation Yrotation
    JOINT RightLeg
    {
      OFFSET 43.5653 0 0
      CHANNELS 3 Zrotation Xrotation Yrotation
      JOINT RightFoot
      {
        OFFSET 40.6238 0 0
        CHANNELS 3 Zrotation Xrotation Yrotation
        JOINT RightToeBase
        {
          OFFSET 12.7242 0 0
          CHANNELS 3 Zrotation Xrotation Yrotation
          End Site
          {
            OFFSET 0 0 0
          }
        }
      }
    }
  }
  JOINT Spine
  {
    OFFSET 0.165834 0.87714 6.61349
    CHANNELS 3 Zrotation Xrotation Yrotation
    JOINT Spine1
    {
      OFFSET 7.38963 1.71661e-005 0
      CHANNELS 3 Zrotation Xrotation Yrotation
      JOINT Spine2
      {
        OFFSET 11.9445 1.14441e-005 0
        CHANNELS 3 Zrotation Xrotation Yrotation
        JOINT Spine3
        {
          OFFSET 14.7254 4.19617e-005 0
          CHANNELS 3 Zrotation Xrotation Yrotation
          JOINT Spine4
          {
            OFFSET 10.9679 0 0
            CHANNELS 3 Zrotation Xrotation Yrotation
            JOINT RightShoulder
            {
              OFFSET 2.46616 -1.6653 3.69651
              CHANNELS 3 Zrotation Xrotation Yrotation
              JOINT RightArm
              {
                OFFSET 13.0012 0 0
                CHANNELS 3 Zrotation Xrotation Yrotation
                JOINT RightForeArm
                {
                  OFFSET 28.7848 1.52588e-005 0
                  CHANNELS 3 Zrotation Xrotation Yrotation
                  JOINT RightHand
                  {
                    OFFSET 26.5688 1.52588e-005 0
                    CHANNELS 3 Zrotation Xrotation Yrotation
                    End Site
                    {
                      OFFSET 0 0 0
                    }
                  }
                }
              }
            }
            JOINT LeftShoulder
            {
              OFFSET 2.38034 -1.29275 -3.7523
              CHANNELS 3 Zrotation Xrotation Yrotation
              JOINT LeftArm
              {
                OFFSET 16.3182 6.10352e-005 0
                CHANNELS 3 Zrotation Xrotation Yrotation
                JOINT LeftForeArm
                {
                  OFFSET 27.0901 0 0
                  CHANNELS 3 Zrotation Xrotation Yrotation
                  JOINT LeftHand
                  {
                    OFFSET 24.5451 1.52588e-005 0
                    CHANNELS 3 Zrotation Xrotation Yrotation
                    End Site
                    {
                      OFFSET 0 0 0
                    }
                  }
                }
              }
            }
            JOINT Neck
            {
              OFFSET 5.0226 -0.0266342 0
              CHANNELS 3 Zrotation Xrotation Yrotation
              JOINT Head
              {
                OFFSET 6.69364 2.86102e-005 0
                CHANNELS 3 Zrotation Xrotation Yrotation
                End Site
                {
                  OFFSET 0 0 0
                }
              }
            }
          }
        }
      }
    }
  }
}
MOTION
Frames:	12
Frame Time:	0.0416667
-18.3283 93.2889 7.84934 106.137 47.1622 79.0115 179.901 23.083 88.9002 -18.0094 14.7954 1.83117 43.6236 -9.03809 3.01034 62.5465 -4.37721 -3.4505 176.889 -11.367 94.8498 -45.5226 -7.48691 -2.14709 60.0042 5.93133 18.2598 33.7475 -1.26431 -1.06811 0.792664 7.48237 -89.9468 11.908 1.60139 -0.0531741 0.237965 1.59751 -0.123626 -22.3039 1.54331 0.430665 -2.29129 1.5433 0.430662 103.235 -48.6898 -80.4684 30.5163 -21.1877 8.54782 -2.76414 1.19284 -47.1966 -11.9061 0.112606 -6.53355 -81.7734 -49.2534 90.8412 -22.3067 29.98 22.0401 22.5596 18.372 -53.1381 -0.336025 -0.183641 -9.41274 4.08101 -1.84156 -2.61503 -27.5646 -1.64642 1.49015 
-3.34695 90.1863 -7.22505 108.583 43.8014 79.5305 -177.809 23.9592 90.1334 -28.8046 20.9695 1.16979 47.5837 -6.7862 8.67364 45.0438 -1.91753 -1.09456 175.736 -9.31297 91.8756 -68.3002 -6.16181 -3.20219 55.5856 4.97277 9.23138 41.6644 -3.26649 -2.71651 0.900085 7.71466 -90.1716 11.4472 1.71041 -0.527316 -0.222787 1.68556 -0.602119 -22.7667 1.78983 0.0112789 -2.75408 1.7898 0.0112674 102.907 -48.4311 -80.9871 30.666 -24.3257 5.72047 -8.70093 -1.06523 -51.2755 -10.128 0.145217 -6.98089 -82.164 -46.517 90.0196 -26.0923 30.4991 27.3236 26.171 17.4735 -55.8582 -0.242834 -0.192392 -9.84063 6.13786 -0.838273 -2.10053 -28.4847 -0.915648 2.235 
9.74294 85.7798 -20.4316 113.457 42.1789 71.5776 -176.063 22.3294 83.4983 -57.0214 19.725 0.666244 61.0605 7.28592 22.0425 46.9275 -2.04671 -0.478063 175.81 7.25684 86.7976 -92.642 -10.1669 -4.10176 55.9872 2.58927 3.76655 53.1871 -5.58392 3.37195 0.276188 8.61876 -89.4803 9.63205 0.785403 0.969726 -2.039 0.82731 0.934215 -24.572 0.457675 1.16092 -4.5594 0.457654 1.16092 102.165 -51.4739 -82.1688 31.6949 -16.5387 0.76179 -9.82702 -6.95813 -46.7234 -15.6995 -0.394025 -2.32135 -82.2219 -50.2605 90.2354 -11.9952 24.7757 7.92316 21.4457 24.8839 -47.6785 -1.27656 -0.133455 -8.85679 10.6142 0.313942 -6.31292 -26.3094 0.264307 7.68492 
22.0441 87.4246 -32.2988 114.509 44.2676 72.8909 -176.096 12.0714 86.7274 -61.5997 24.7858 2.00668 63.103 10.7133 25.7904 58.699 -2.57754 5.44999 175.199 24.249 89.7663 -82.9511 -7.24439 -2.55619 61.0072 2.18905 10.6169 55.6998 -5.75265 5.81212 -0.301325 8.63977 -89.6906 9.59668 -0.461089 0.650752 -2.07442 -0.431984 0.670405 -24.6091 -0.635356 0.482092 -4.59648 -0.635344 0.482098 102.48 -52.579 -81.6928 33.6341 -13.5384 5.81519 -7.171 -9.71976 -39.5979 -20.5689 -0.863509 -0.353835 -82.1377 -52.3961 90.5263 -7.26065 14.9124 -9.85229 39.3358 38.9713 -55.1544 -1.55486 -0.0855595 -4.52032 5.92701 1.97599 -6.13588 -27.0244 1.31096 8.93477 
34.2813 91.6108 -44.151 115.831 49.9907 72.8185 179.429 6.31081 89.3301 -64.0586 22.4608 4.9139 53.8673 -1.42658 8.73916 57.1657 -2.52189 4.33422 175.426 26.1449 89.0056 -45.7043 -5.63505 0.200657 60.2109 5.90185 15.686 54.4464 -5.71527 4.45531 -0.875769 8.42552 -89.9893 10.0246 -1.74038 0.165587 -1.64519 -1.73139 0.242051 -24.1897 -1.70966 -0.365281 -4.1771 -1.70965 -0.365284 102.166 -51.8721 -82.1679 33.6908 -12.1519 16.0971 -8.33356 -11.7799 -37.3423 -15.1192 -0.395962 -2.14657 -81.6377 -50.8034 91.1568 -6.64646 20.1357 -14.3315 26.3143 13.1075 -59.4621 3.74711 -0.178309 -6.17127 2.96411 2.25256 -5.99312 -27.3759 1.40683 8.81181 
47.2886 90.7313 -56.77 118.259 51.6227 69.6799 176.015 5.58815 87.7516 -72.0263 14.6489 5.5828 54.4081 -0.0236265 10.1494 52.6086 -2.17451 5.16092 175.914 23.0768 87.2099 -30.1517 -3.95078 1.32089 55.9064 9.63359 19.7079 50.3282 -5.20071 0.79191 -0.753577 8.29197 -90.006 10.2902 -1.50416 0.121636 -1.37994 -1.49736 0.18774 -23.9217 -1.47118 -0.336151 -3.90907 -1.47119 -0.336159 101.541 -48.9407 -83.1522 34.6263 -11.39 25.7093 -9.04856 -11.1199 -38.2762 -11.3736 -0.160549 -3.72444 -81.7054 -49.7558 90.9815 -1.04426 29.1636 -12.2482 16.9732 -13.0853 -82.9923 6.4313 -0.3847 -7.91778 -0.0447846 1.21594 -4.46134 -25.5091 0.506602 6.99996 
58.879 86.2257 -67.6892 125.569 48.9921 67.3087 177.25 9.8514 90.1974 -85.0261 9.61299 4.81072 58.7478 6.3908 18.3738 55.0778 -2.33745 5.22685 172.195 24.3451 91.4245 -53.5684 -16.9299 2.8155 51.6717 9.01346 7.94637 36.1196 -1.87233 2.52304 -0.237937 8.96836 -90.5343 8.93288 -0.712754 -1.00904 -2.73824 -0.756487 -0.976683 -25.2708 -0.376583 -1.17657 -5.25816 -0.376581 -1.17657 100.805 -48.4912 -84.3309 29.0525 -12.7333 20.794 -9.31365 -16.0061 -33.7216 -11.4584 -0.294017 -2.28129 -81.7561 -51.9388 91.0575 -3.821 27.7098 -7.32766 21.9441 -17.5285 -96.0113 18.821 -0.134873 -4.60689 1.8943 0.392261 -2.30477 -23.3713 -0.105409 5.01424 
68.8702 86.5047 -77.2569 128.301 52.0858 67.5346 173.976 19.9684 91.1236 -79.5287 10.3285 5.31572 61.849 9.02983 17.6615 56.6636 -2.08065 7.90906 168.278 16.1086 94.5973 -59.612 -19.1617 5.28944 61.2765 -2.16182 -7.01278 49.2343 -4.57294 5.05562 -0.384522 9.10138 -90.9349 8.65825 -1.18155 -1.7738 -3.01335 -1.25847 -1.72011 -25.5398 -0.593972 -2.04679 -5.5272 -0.593956 -2.04679 101.752 -51.2725 -82.8023 20.1185 -7.98794 2.26681 -5.6888 -24.41 -20.8641 -8.65298 -0.454111 0.859725 -81.7698 -53.31 91.13 -13.3942 23.2197 -5.50954 32.6982 -3.43399 -74.2206 18.0102 0.0214369 -3.73996 0.144575 -0.328129 -4.40658 -22.55 -0.717068 6.19304 
77.6208 90.6212 -85.6831 121.642 49.0393 70.4611 178.419 20.7874 87.7883 -46.6034 12.718 3.57655 59.8307 5.52022 13.133 58.4692 -2.03838 8.73116 173.825 7.38225 96.2038 -54.9834 -10.1412 1.09903 65.634 -2.15837 1.52373 51.9952 -5.30976 3.43092 0.0561277 8.81805 -90.5268 9.2379 -0.124163 -1.03687 -2.4334 -0.169671 -1.03041 -24.9656 0.193179 -1.02626 -4.95299 0.193193 -1.02627 101.565 -51.6735 -83.0885 21.4784 -8.58191 -5.97696 -5.45492 -18.1969 -24.7208 -11.0901 -0.51135 0.192519 -82.2288 -53.8197 90.4985 -17.9512 18.6087 -3.52043 46.8393 27.803 -64.2264 -8.00901 -0.0404229 -4.86638 0.993203 -0.60007 -6.28542 -23.7992 -0.862096 6.87387 
86.6898 93.2389 -95.0323 114.37 47.5302 77.2576 -179.875 16.4358 89.2811 -15.8886 18.8447 2.36264 51.2808 -2.84588 6.33933 54.3027 -2.20985 6.9777 178.177 -1.19869 98.9 -45.8819 -3.05858 -1.21889 69.0846 -1.33379 9.06666 50.2537 -5.21695 0.866686 0.182872 8.19844 -90.4888 10.4763 0.140191 -0.978737 -1.19501 0.0969893 -0.983971 -23.7277 0.427831 -0.891367 -3.71502 0.427849 -0.891371 101.798 -50.6391 -82.7369 22.8178 -19.1719 -8.24297 -11.4363 -10.7023 -41.2499 -8.8383 -0.150708 -3.57197 -83.6497 -53.2553 88.3772 -19.918 22.4188 2.9631 47.8774 46.4283 -61.9382 -9.812 -0.0281706 -5.36369 0.795671 -0.0175519 -5.70302 -24.1978 -0.46774 7.23228 
95.5948 91.588 -104.093 111.363 44.6226 78.1382 -179.244 20.1793 87.6818 -28.3983 22.0691 1.76563 47.8136 -6.36898 14.4853 40.2647 -1.16986 -7.20419 175.913 -5.9975 93.9966 -50.8169 -4.07702 -1.53498 68.2631 1.13627 17.0734 52.297 -5.44061 2.96773 0.293768 7.8214 -90.3458 11.232 0.423831 -0.730306 -0.439102 0.391273 -0.748237 -22.9737 0.623702 -0.569169 -2.96108 0.623711 -0.569163 101.624 -50.0771 -83.0116 23.624 -24.3912 -7.58182 -19.7859 -4.14996 -59.0582 -4.86225 -0.202327 -0.373132 -83.1018 -53.9153 89.2372 -21.2516 22.5572 7.28376 25.5116 49.0265 -44.2866 -10.1508 0.135454 -7.69274 0.6149 0.485313 -4.02162 -24.1268 -0.244471 7.38345 
101.805 90.5345 -110.477 114.994 41.1407 71.4036 -176.669 17.2144 83.5087 -41.0839 20.6349 -0.254801 55.4951 0.24435 20.6483 40.071 -1.11844 -8.2258 174.523 -0.99278 89.1567 -69.6692 -11.7232 -3.14822 51.1617 8.70395 15.7937 33.4975 -1.32721 5.75773 0.380581 8.41008 -89.6735 10.0469 0.906952 0.566194 -1.62383 0.930997 0.525726 -24.1593 0.694866 0.812601 -4.14667 0.694874 0.812597 101.542 -52.2468 -83.1154 26.7369 -22.3246 -9.84221 -17.1808 -4.47554 -58.3146 -15.674 -0.336435 -3.05523 -83.6563 -55.3814 88.5733 -16.707 11.925 -5.1266 -1.79405 67.5535 -11.8743 -10.4516 0.248423 -9.30199 1.6129 0.719265 -5.45239 -23.6055 0.0883266 8.45061 
